# xmcd CD database file
#
# Track frame offsets:
#	150
#	14722
#	25382
#	38497
#	50197
#	62635
#	76740
#	91272
#	103820
#	118252
#	134310
#	150752
#	166212
#	182247
#	194785
#
# Disc length: 2796 seconds
#
# Revision: 0
# Processed by: cddbd v1.5.1PL2 Copyright (c) Steve Scherf et al.
# Submitted via: CDex 1.51
#
DISCID=c80aea0f
DTITLE=Tião do Carro and Pagodinho - Onça Pintada
DYEAR=1998
DGENRE=Sertanejo
TTITLE0=Dr. Coração
TTITLE1=Fogo no Estopim
TTITLE2=Duelo Sem Espada
TTITLE3=Onça Pintada
TTITLE4=Francisco de Assis
TTITLE5=Meu Pai
TTITLE6=Cama Perfeita
TTITLE7=Tem Gamba no Galinheiro
TTITLE8=Carta Branca
TTITLE9=Um Peso, Duas Medidas
TTITLE10=Fogo da Paixão
TTITLE11=A Loira do Caixa
TTITLE12=Cordão de Ouro
TTITLE13=Cortina Dourada
TTITLE14=O Nordestino
EXTD=YEAR: 1998
EXTT0=
EXTT1=
EXTT2=
EXTT3=
EXTT4=
EXTT5=
EXTT6=
EXTT7=
EXTT8=
EXTT9=
EXTT10=
EXTT11=
EXTT12=
EXTT13=
EXTT14=
PLAYORDER=
